<svg xmlns="http://www.w3.org/2000/svg" width="256" height="256"><path fill-opacity=".008" d="M0 128.004v128.004l128.25-.254 128.25-.254.254-127.75L257.008 0H0v128.004m.485.496c0 70.4.119 99.053.265 63.672.146-35.38.146-92.98 0-128C.604 29.153.485 58.1.485 128.5" fill="#1976D2" fill-rule="evenodd"/><path fill-opacity=".174" d="M112 127.975V211h33.012l-.256-82.75-.256-82.75-16.25-.275L112 44.95v83.025M45.69 95.643c-.38.38-.69 26.49-.69 58.024V211h35.016l-.258-57.75L79.5 95.5l-16.56-.273c-9.108-.151-16.871.037-17.25.416M176 177.5V211h35v-67h-35v33.5" fill="#1976D2" fill-rule="evenodd"/><path fill-opacity=".296" d="M112 128.5V211h32V46h-32v82.5m-66 25.024v57.524l16.75-.274 16.75-.274.258-57.25.258-57.25H46v57.524m131 24v33.524l16.75-.274 16.75-.274.263-33.25.264-33.25H177v33.524" fill="#1976D2" fill-rule="evenodd"/><path fill-opacity=".252" d="M112 128v82h32V46h-32v82m-66 25v57h33V96H46v57m131 24.088V210h33v-66.077l-16.5.126-16.5.127v32.912" fill="#1976D2" fill-rule="evenodd"/></svg>