<svg xmlns="http://www.w3.org/2000/svg" width="256" height="256"><path fill-opacity=".016" d="M0 128.004v128.004l128.25-.254 128.25-.254.254-127.75L257.008 0H0v128.004m.485.496c0 70.4.119 99.053.265 63.672.146-35.38.146-92.98 0-128C.604 29.153.485 58.1.485 128.5" fill="#1976D2" fill-rule="evenodd"/><path fill-opacity=".187" d="M.079 14.583c.048 1.165.285 1.402.604.605.289-.722.253-1.585-.079-1.917-.332-.332-.568.258-.525 1.312M113 128.5V206h31V51h-31v77.5M52.75 96.823c-1.641.304-1.75 3.705-1.75 54.75V206h32v-54.5c0-42.826-.268-54.543-1.25-54.702-2.109-.34-27.138-.319-29 .025M174 174.5V206h32v-63h-32v31.5M0 244.992c0 4.725.461 6.523 2.18 8.5L4.361 256h248.503l2.068-2.904c1.579-2.219 2.061-4.404 2.038-9.25-.024-4.845-.275-5.927-1.061-4.576-.567.974-.748 2.663-.402 3.753.39 1.229-.017 2.63-1.071 3.683-1.6 1.601-1.657 1.557-.975-.753l.724-2.453-1.65 2.252c-.908 1.238-1.366 2.712-1.019 3.275.348.562.262.902-.192.754-.453-.148-2.624.854-4.824 2.225l-4 2.494-114.31.233c-111.295.227-114.364.183-116.36-1.676-1.127-1.051-2.68-1.668-3.451-1.372-1.009.387-1.21.037-.717-1.247.536-1.397.312-1.642-1.029-1.128-1.08.415-1.64.202-1.515-.576.108-.679-.151-2.033-.577-3.01-.625-1.431-1.058-1.54-2.239-.56-1.257 1.044-1.366.694-.772-2.474.461-2.455.321-3.69-.419-3.69C.42 239 0 241.264 0 244.992m.328.508c.005 3.85.185 5.302.402 3.228.216-2.075.213-5.225-.008-7-.221-1.776-.398-.078-.394 3.772" fill="#1976D2" fill-rule="evenodd"/><path fill-opacity=".216" d="M113.47 52.223c-.268.702-.371 35.477-.229 77.277l.259 76h30v-154l-14.771-.277c-11.266-.211-14.887.026-15.259 1m-62.229 99.502L51.5 205.5h31v-107l-15.759-.275-15.758-.276.258 53.776m122.995 23.025l.264 30.75h31l.264-30.75.265-30.75h-32.058l.265 30.75" fill="#1976D2" fill-rule="evenodd"/><path fill-opacity=".331" d="M114 128.5V205h29V52h-29v76.5M52.693 98.64c-.381.382-.693 24.48-.693 53.553v52.86l14.75-.276 14.75-.277v-106l-14.057-.276c-7.731-.152-14.369.035-14.75.416m122.76 46.622c-.266.694-.365 14.307-.219 30.25l.266 28.988 14.75.277 14.75.276V144h-14.531c-10.778 0-14.657.326-15.016 1.262" fill="#1976D2" fill-rule="evenodd"/></svg>