<?xml version="1.0" encoding="UTF-8" standalone="no"?>
<svg
   xmlns:dc="http://purl.org/dc/elements/1.1/"
   xmlns:cc="http://creativecommons.org/ns#"
   xmlns:rdf="http://www.w3.org/1999/02/22-rdf-syntax-ns#"
   xmlns:svg="http://www.w3.org/2000/svg"
   xmlns="http://www.w3.org/2000/svg"
   id="svg8"
   version="1.1"
   viewBox="0 0 26.458334 26.458334"
   height="100"
   width="100">
  <defs
     id="defs2">
    <filter
       id="filter1443"
       style="color-interpolation-filters:sRGB">
      <feFlood
         id="feFlood1433"
         result="flood"
         flood-color="rgb(128,128,128)"
         flood-opacity="0.682353" />
      <feComposite
         id="feComposite1435"
         result="composite1"
         operator="in"
         in2="SourceGraphic"
         in="flood" />
      <feGaussianBlur
         id="feGaussianBlur1437"
         result="blur"
         stdDeviation="1"
         in="composite1" />
      <feOffset
         id="feOffset1439"
         result="offset"
         dy="1"
         dx="-2.77556e-17" />
      <feComposite
         id="feComposite1441"
         result="composite2"
         operator="over"
         in2="offset"
         in="SourceGraphic" />
    </filter>
  </defs>
  <metadata
     id="metadata5">
    <rdf:RDF>
      <cc:Work
         rdf:about="">
        <dc:format>image/svg+xml</dc:format>
        <dc:type
           rdf:resource="http://purl.org/dc/dcmitype/StillImage" />
        <dc:title></dc:title>
      </cc:Work>
    </rdf:RDF>
  </metadata>
  <g
     transform="matrix(0.50610915,0,0,0.50610915,-4.0565377,-95.617242)"
     id="g876">
    <path
       id="path1104"
       d="m 17.048854,193.28262 h 34.210497 c 2.591178,0 4.677216,2.08604 4.677216,4.67722 v 34.2105 c 0,2.59117 -2.086038,4.67721 -4.677216,4.67721 H 17.048854 c -2.591178,0 -4.677217,-2.08604 -4.677217,-4.67721 v -34.2105 c 0,-2.59118 2.086039,-4.67722 4.677217,-4.67722 z"
       style="fill:#ffffff;fill-opacity:1;stroke-width:0.26458332" />
    <path
       id="path902"
       d="m 31.399962,201.01327 v 28.0816 l 5.49398,-10e-4 v -28.08038 h -5.49398 z m -11.29318,8.5462 v 19.55743 l 5.799232,-0.0233 v -19.53414 l -5.799232,-2e-5 z m 22.281139,19.53416 h 5.799189 l 0.01432,-11.31647 -5.813218,5e-5 z"
       style="fill:#247cd3;stroke-width:0.30522108" />
  </g>
</svg>
